<?xml version="1.0" encoding="UTF-8"?>
<svg id="_Слой_2" data-name="Слой 2" xmlns="http://www.w3.org/2000/svg" viewBox="0 0 36.89 66.83">
  <defs>
    <style>
      .cls-1 {
        fill: #ed1e25;
      }
    </style>
  </defs>
  <g id="Layer_1" data-name="Layer 1">
    <g>
      <path class="cls-1" d="M30.5,39.85c-1.9,0-3.69-.74-5.04-2.09-1.34-1.34-2.08-3.13-2.08-5.03s.74-3.69,2.09-5.03c1.34-1.34,3.13-2.08,5.03-2.08s3.69,.74,5.03,2.08l-2.51,2.51c-.67-.67-1.57-1.04-2.52-1.04s-1.85,.37-2.52,1.04c-.67,.67-1.04,1.57-1.04,2.52s.37,1.85,1.04,2.52c.67,.67,1.57,1.04,2.52,1.04s1.85-.37,2.52-1.04l2.51,2.51c-1.34,1.34-3.13,2.09-5.03,2.09Z"/>
      <rect class="cls-1" x="25.16" y="20.63" width="9.95" height="3.56"/>
      <path class="cls-1" d="M25.23,66.83v-3.56c4.47,0,8.1-3.63,8.1-8.1s-3.88-7.23-4.05-7.34l-.15-.11c-1.87-1.52-3.99-2.74-6.04-3.93-2.68-1.54-5.44-3.14-7.73-5.43-6.66-6.66-6.49-19.04-6.48-19.56l.03-1.74H25.3v3.56H12.48c.2,3.41,1.13,10.98,5.39,15.23,1.96,1.96,4.41,3.37,7,4.87,2.15,1.24,4.37,2.52,6.44,4.2,.76,.52,5.57,4.07,5.57,10.26s-5.23,11.65-11.65,11.65Z"/>
      <path class="cls-1" d="M25.84,12.77H8.67l-2.38-7.72,4.12-1.9,.42,1.25c.26,.78,.98,1.3,1.79,1.3,1.05,0,1.9-.85,1.9-1.9,0-.33-.09-.66-.28-.97l-.68-1.13,3.69-1.7,3.69,1.7-.68,1.13c-.18,.31-.28,.63-.28,.97,0,1.05,.85,1.9,1.9,1.9,.81,0,1.53-.52,1.79-1.3l.42-1.25,4.12,1.9-2.38,7.72Zm-15.42-2.37h13.67l1.25-4.07h-.02c-.79,1.07-2.05,1.74-3.43,1.74-2.36,0-4.27-1.92-4.27-4.27,0-.33,.04-.65,.12-.97l-.48-.22-.48,.22c.08,.32,.12,.64,.12,.97,0,2.36-1.92,4.27-4.27,4.27-1.38,0-2.64-.67-3.43-1.75h-.02s1.25,4.08,1.25,4.08Z"/>
      <path class="cls-1" d="M4.78,31.57c-1.26-3.92-1.32-7.46-1.15-9.73H.06c-.17,2.59-.05,6.39,1.27,10.63,3.87,12.38,14.94,18.86,23.82,22.15v-3.81c-10.8-4.27-17.65-10.74-20.37-19.24Z"/>
    </g>
  </g>
</svg>